# xmcd
#
# Track frame offsets: 
#        150
#        13615
#        29962
#        59625
#        81575
#        103950
#        123167
#        145352
#        166915
#        186335
#        206027
#        225845
#        244337
#        261590
#        276250
#
# Disc length: 3934 seconds
#
# Revision: 12
# Processed by: cddbd v1.5.2PL0 Copyright (c) Steve Scherf et al.
# Submitted via: ExactAudioCopy v1.0b3
#
DISCID=eb0f5c0f
DTITLE=?? - ??
DYEAR=1900
DGENRE=
TTITLE0=???? 1
TTITLE1=???? 2
TTITLE2=???? 3
TTITLE3=???? 4
TTITLE4=???? 5
TTITLE5=???? 6
TTITLE6=???? 7
TTITLE7=???? 8
TTITLE8=???? 9
TTITLE9=???? 10
TTITLE10=???? 11
TTITLE11=???? 12
TTITLE12=???? 13
TTITLE13=???? 14
TTITLE14=???? 15
EXTD=
EXTT0=
EXTT1=
EXTT2=
EXTT3=
EXTT4=
EXTT5=
EXTT6=
EXTT7=
EXTT8=
EXTT9=
EXTT10=
EXTT11=
EXTT12=
EXTT13=
EXTT14=
PLAYORDER=
